<?xml version="1.0" standalone="no"?>
<!DOCTYPE svg PUBLIC "-//W3C//DTD SVG 20010904//EN"
 "http://www.w3.org/TR/2001/REC-SVG-20010904/DTD/svg10.dtd">
<svg version="1.0" xmlns="http://www.w3.org/2000/svg"
 width="512.000000pt" height="512.000000pt" viewBox="0 0 512.000000 512.000000"
 preserveAspectRatio="xMidYMid meet">
<metadata>
Created by potrace 1.14, written by Peter Selinger 2001-2017
</metadata>
<g transform="translate(0.000000,512.000000) scale(0.100000,-0.100000)"
fill="#000000" stroke="none">
<path d="M933 5096 c-27 -13 -58 -35 -69 -48 -11 -14 -30 -29 -42 -32 -13 -4
-33 -24 -47 -44 -13 -20 -35 -50 -49 -65 -13 -16 -35 -53 -47 -83 -22 -53 -49
-72 -49 -35 0 11 -9 23 -21 26 -17 6 -29 0 -50 -23 -16 -17 -29 -34 -29 -37 0
-4 -11 -21 -25 -39 -14 -18 -25 -40 -25 -49 0 -8 -6 -28 -14 -44 -19 -36 -36
-146 -39 -247 -2 -55 -7 -81 -16 -84 -7 -2 -16 0 -20 5 -3 5 -27 24 -53 43
-27 18 -48 36 -48 39 0 3 -15 22 -33 41 -18 19 -48 56 -66 82 -38 54 -68 65
-112 43 -64 -33 -69 -46 -69 -155 0 -93 3 -106 41 -202 23 -57 45 -107 50
-113 5 -5 9 -16 9 -26 0 -9 21 -58 46 -108 42 -85 44 -94 30 -110 -9 -10 -16
-25 -16 -33 0 -9 -7 -21 -15 -28 -22 -18 -29 -75 -16 -123 7 -23 18 -65 25
-93 7 -28 27 -72 44 -98 18 -26 32 -50 32 -53 0 -6 10 -16 102 -112 23 -23 59
-54 80 -67 43 -27 47 -43 18 -69 -18 -16 -20 -28 -17 -80 5 -65 49 -182 86
-223 12 -13 21 -27 21 -31 0 -9 128 -148 217 -235 82 -81 130 -123 190 -169
23 -18 58 -45 79 -62 48 -38 162 -115 172 -115 4 0 13 -9 20 -20 7 -11 17 -20
23 -20 6 0 41 -18 78 -40 72 -43 74 -46 132 -205 12 -33 25 -64 29 -70 4 -5
34 -62 66 -125 71 -142 154 -246 248 -310 20 -14 44 -41 52 -60 55 -119 71
-148 117 -203 28 -34 57 -66 65 -71 8 -5 31 -23 51 -40 33 -29 118 -84 180
-116 46 -24 130 -38 170 -29 23 5 52 4 72 -1 46 -13 112 -13 144 2 19 9 31 8
49 -1 17 -10 37 -10 77 -3 30 5 86 9 124 8 39 -1 97 2 130 6 38 5 80 4 114 -3
45 -9 62 -8 108 6 48 15 62 16 116 5 90 -19 154 -46 222 -95 61 -44 175 -156
175 -172 0 -17 48 -55 60 -48 9 5 10 1 6 -13 -6 -17 24 -74 66 -127 5 -5 42
-62 83 -125 156 -243 229 -324 322 -357 42 -15 130 0 151 26 30 38 54 105 56
153 1 51 2 52 69 107 37 31 77 70 87 86 29 45 52 131 49 188 -3 49 -3 50 39
69 23 11 53 34 67 52 13 17 30 38 37 47 39 47 60 110 60 173 0 59 -16 115 -29
103 -6 -6 -43 24 -43 35 0 5 15 8 33 8 38 0 57 11 61 32 1 9 7 22 13 29 19 24
26 98 13 144 -11 40 -10 46 14 86 15 24 32 53 39 64 7 11 15 22 19 25 31 24
93 148 93 185 -1 34 -17 88 -29 101 -39 38 -184 72 -200 46 -2 -4 -22 -9 -43
-10 -37 -2 -136 -23 -199 -43 -17 -5 -36 -9 -44 -9 -7 0 -21 -6 -29 -14 -17
-15 -50 -23 -136 -32 -27 -3 -55 -10 -62 -15 -7 -6 -13 -6 -17 -1 -3 6 -24 6
-49 1 -25 -4 -69 -9 -98 -10 -30 -1 -62 -6 -72 -11 -11 -5 -103 -12 -205 -15
l-187 -5 -100 37 c-92 34 -130 50 -225 94 -43 20 -190 164 -190 186 0 9 5 13
10 10 6 -3 16 -3 23 2 6 4 21 8 32 9 64 2 114 18 158 50 26 19 45 39 42 43 -8
13 22 21 46 13 50 -19 237 24 301 69 46 33 88 107 88 156 0 40 2 44 20 38 13
-4 31 0 48 11 15 10 47 28 72 40 25 11 68 42 96 68 29 25 56 46 61 46 14 0 67
171 69 220 1 49 -8 70 -45 112 l-24 27 24 28 c29 34 38 44 90 103 82 92 117
180 113 290 -3 96 -4 98 -51 128 -42 26 -57 52 -30 52 35 0 177 266 208 388
15 62 5 105 -42 164 -35 45 -36 58 -4 127 14 30 27 66 29 82 1 15 10 39 19 53
23 35 47 106 47 141 0 17 6 39 13 50 16 23 33 103 36 160 2 42 -7 57 -78 137
-46 52 -81 52 -133 -2 -21 -23 -38 -47 -38 -54 0 -21 -51 -107 -66 -113 -8 -3
-14 -9 -14 -14 0 -5 -10 -20 -21 -33 -26 -30 -40 -53 -75 -126 -15 -30 -33
-59 -41 -63 -7 -4 -13 -14 -13 -21 0 -21 -227 -246 -263 -261 -18 -8 -44 -27
-59 -43 -31 -33 -149 -102 -176 -102 -9 0 -28 -9 -42 -20 -14 -11 -29 -20 -35
-20 -5 0 -50 -20 -100 -45 -49 -25 -95 -45 -103 -45 -8 0 -26 -6 -40 -14 -15
-8 -54 -25 -87 -37 -33 -13 -70 -30 -82 -37 -12 -7 -25 -13 -28 -12 -11 3
-170 -64 -205 -87 -19 -12 -80 -39 -135 -59 -55 -20 -113 -47 -130 -59 -31
-23 -102 -57 -145 -70 -14 -4 -38 -18 -53 -31 -16 -13 -33 -24 -38 -24 -12 0
-62 -35 -115 -80 -114 -98 -180 -171 -189 -208 -3 -18 -11 -32 -16 -32 -5 0
-9 -6 -9 -14 0 -8 -8 -32 -18 -54 l-18 -41 -12 32 c-21 61 -35 122 -33 140 1
10 -2 24 -7 30 -5 7 -13 32 -17 57 -3 25 -12 63 -20 85 -7 22 -19 60 -26 85
-7 25 -16 50 -19 55 -4 6 -10 23 -14 39 -4 16 -16 41 -27 55 -57 75 -89 122
-89 131 0 6 -6 10 -14 10 -8 0 -23 15 -34 33 -20 34 -101 107 -119 107 -6 0
-16 6 -22 14 -7 8 -23 17 -37 20 -14 4 -38 16 -53 27 -15 11 -39 22 -52 24
-13 3 -49 10 -79 17 -68 15 -165 15 -212 -1 -19 -6 -44 -13 -56 -16 -11 -2
-41 -15 -66 -28 -53 -28 -75 -26 -126 11 -47 34 -120 109 -120 124 0 6 19 36
43 66 23 30 58 83 77 117 19 35 48 85 63 111 18 32 27 58 24 74 -7 32 21 81
87 153 14 15 26 32 26 37 0 5 9 24 20 42 24 40 25 56 4 79 -19 22 -10 43 47
101 21 22 39 46 39 52 0 7 10 22 23 34 12 11 30 36 40 55 18 34 18 35 -2 76
-15 28 -30 42 -49 47 -15 3 -36 9 -47 14 -70 31 -145 16 -224 -44 -19 -14 -36
-24 -38 -22 -2 2 4 19 15 37 31 57 42 97 29 107 -21 15 -53 11 -104 -12z m27
-67 c0 -13 -4 -18 -12 -13 -7 4 -8 3 -4 -4 9 -15 -19 -81 -39 -88 -8 -3 -15
-12 -15 -19 0 -7 -10 -28 -23 -46 -13 -19 -22 -41 -19 -49 3 -12 2 -13 -6 -1
-13 19 -32 5 -32 -24 0 -13 -8 -29 -17 -35 -17 -10 -17 -10 0 -20 9 -6 17 -16
17 -23 0 -7 -4 -6 -10 3 -9 13 -11 13 -20 0 -6 -10 -6 -16 0 -18 18 -7 10 -32
-10 -32 -11 0 -20 -4 -20 -10 0 -5 5 -10 10 -10 14 0 12 -16 -5 -33 -17 -17
-8 -32 11 -16 14 11 15 -6 1 -28 -4 -6 -2 -13 4 -15 6 -2 3 -13 -10 -28 -11
-14 -20 -19 -21 -12 0 6 5 12 10 12 19 0 10 15 -21 33 -27 15 -30 15 -25 2 4
-10 2 -14 -5 -9 -6 4 -14 1 -18 -5 -5 -8 -12 -8 -24 2 -15 11 -15 18 0 87 8
43 23 84 35 97 11 12 31 45 44 73 22 49 72 118 80 113 2 -2 10 -3 17 -3 9 0 8
3 -2 9 -15 10 -4 26 66 99 42 44 63 48 63 11z m344 -80 c-3 -5 -9 -7 -14 -4
-5 3 -11 1 -15 -5 -3 -5 -1 -10 4 -10 6 0 11 -6 11 -13 0 -21 -40 -99 -63
-124 -21 -24 -44 -32 -31 -12 3 6 -6 3 -22 -7 -41 -25 -42 -27 -14 -20 24 7
24 6 -2 -9 -22 -12 -31 -13 -47 -3 -24 14 -50 -8 -53 -46 -2 -25 -18 -26 -18
0 0 8 -9 14 -19 14 -34 0 -31 16 5 29 18 7 34 17 34 22 0 11 -11 11 -30 -1
-16 -10 -40 4 -40 24 0 6 5 4 10 -4 7 -12 10 -12 10 -1 0 7 6 11 13 9 6 -3 21
4 31 15 19 20 19 20 -13 14 -20 -4 -30 -3 -26 3 3 6 -1 10 -9 10 -20 0 -20 10
-1 37 12 17 22 21 44 17 17 -4 32 -1 36 5 5 8 -1 10 -19 5 -22 -5 -25 -3 -20
10 4 10 13 15 20 12 7 -3 16 3 19 13 8 26 42 54 55 46 8 -5 5 -11 -7 -21 -10
-7 -13 -14 -6 -14 7 0 23 11 37 23 25 23 27 23 85 9 33 -8 58 -19 55 -23z
m-334 -193 c0 -8 -7 -16 -15 -20 -17 -6 -18 -4 -9 18 8 20 24 21 24 2z m5 -45
c-3 -6 -11 -11 -16 -11 -5 0 -4 6 3 14 14 16 24 13 13 -3z m-389 -31 c-3 -22
-7 -44 -10 -48 -2 -4 -1 -14 4 -21 9 -15 -8 -74 -19 -67 -3 2 -15 -3 -26 -11
-17 -14 -17 -15 -2 -9 15 5 17 1 14 -23 -4 -21 -1 -28 8 -25 9 4 12 -9 12 -45
0 -40 -3 -52 -18 -56 -10 -4 -23 -3 -29 0 -5 3 -10 3 -10 -2 0 -14 15 -28 29
-28 21 0 20 -53 -1 -77 -10 -12 -24 -18 -33 -14 -9 3 -15 0 -15 -9 0 -8 -5
-15 -10 -15 -7 0 -9 32 -5 93 7 109 12 140 25 132 5 -3 6 9 3 29 -3 19 0 58 7
88 14 56 58 148 72 148 5 0 7 -18 4 -40z m504 25 c-7 -9 -15 -13 -19 -10 -3 3
1 10 9 15 21 14 24 12 10 -5z m-129 -32 c12 -15 12 -16 -8 -11 -23 6 -49 -13
-36 -26 4 -4 0 -4 -9 -1 -10 4 -14 14 -11 26 3 12 11 18 19 15 7 -3 16 -1 19
4 8 13 10 13 26 -7z m63 1 c3 -8 2 -12 -4 -9 -6 3 -10 10 -10 16 0 14 7 11 14
-7z m-24 -24 c0 -5 -4 -10 -10 -10 -5 0 -10 5 -10 10 0 6 5 10 10 10 6 0 10
-4 10 -10z m-35 -10 c3 -5 1 -10 -4 -10 -6 0 -11 5 -11 10 0 6 2 10 4 10 3 0
8 -4 11 -10z m3610 -33 c4 -20 1 -43 -9 -62 -9 -17 -16 -40 -16 -52 0 -12 -7
-43 -16 -69 -9 -25 -17 -54 -20 -63 -7 -31 -36 -116 -50 -148 -8 -17 -14 -36
-14 -42 0 -6 -4 -11 -9 -11 -5 0 -15 -16 -21 -35 -7 -20 -29 -55 -50 -78 -21
-23 -55 -66 -75 -95 -20 -29 -55 -70 -78 -90 -66 -59 -136 -133 -169 -180 -28
-41 -29 -44 -14 -67 17 -25 46 -34 46 -14 0 5 5 7 10 4 6 -4 30 13 54 37 67
67 103 98 114 98 18 0 76 62 115 120 20 31 48 67 62 80 26 25 27 25 41 5 9
-11 13 -29 10 -40 -3 -11 -11 -47 -19 -80 -8 -33 -28 -84 -45 -113 -18 -29
-32 -59 -32 -67 0 -8 -5 -17 -10 -20 -6 -4 -21 -23 -34 -43 -13 -21 -34 -49
-48 -63 -13 -14 -32 -43 -42 -63 -9 -20 -30 -46 -47 -58 -16 -12 -29 -30 -29
-40 0 -10 -5 -18 -10 -18 -6 0 -43 -31 -83 -68 -104 -99 -148 -136 -184 -157
-17 -10 -34 -26 -36 -34 -3 -9 -8 -24 -12 -33 -5 -13 -1 -20 16 -27 14 -5 29
-5 35 0 6 5 18 7 27 3 36 -14 199 105 300 218 55 62 81 78 118 71 25 -6 8
-119 -28 -175 -12 -21 -23 -41 -23 -45 -1 -14 -86 -103 -99 -103 -6 0 -11 -6
-9 -13 4 -15 -77 -96 -138 -138 -24 -16 -44 -33 -44 -37 0 -4 -17 -8 -37 -9
-21 -1 -46 -6 -58 -12 -49 -24 -115 -49 -145 -56 -39 -8 -60 -46 -40 -70 16
-20 108 -19 156 1 17 7 51 15 76 18 58 7 124 35 165 70 38 32 57 26 51 -15 -3
-16 0 -30 4 -31 5 -2 4 -17 -3 -33 -7 -17 -11 -35 -10 -41 0 -6 -6 -17 -14
-24 -8 -7 -15 -18 -15 -24 0 -26 -99 -106 -131 -106 -6 0 -17 -7 -25 -15 -28
-27 -141 -48 -274 -49 -47 -1 -89 2 -95 5 -5 4 -23 9 -38 11 -27 5 -28 4 -24
-34 5 -44 2 -40 45 -61 17 -10 45 -24 62 -33 23 -12 40 -13 81 -6 91 17 101 0
36 -63 -53 -50 -137 -80 -217 -76 -30 1 -59 5 -64 9 -6 3 -29 7 -51 9 -22 1
-65 10 -95 20 -83 28 -117 16 -103 -37 4 -15 25 -31 63 -49 40 -19 53 -30 45
-37 -14 -14 -201 -43 -244 -38 -18 2 -52 9 -75 15 -22 6 -70 13 -106 15 -36 2
-76 7 -90 11 -14 4 -29 8 -35 9 -5 1 -12 3 -15 4 -3 1 -22 4 -44 6 -46 6 -82
-21 -62 -47 18 -22 83 -69 89 -63 3 3 14 1 25 -5 21 -11 49 -16 137 -25 61 -7
160 -23 185 -31 11 -3 22 -15 25 -26 10 -31 136 -159 177 -180 20 -10 48 -30
62 -44 13 -13 36 -27 50 -31 14 -3 26 -11 26 -16 0 -6 6 -8 13 -5 7 3 24 -4
38 -14 13 -10 33 -19 44 -19 12 0 25 -4 30 -8 19 -17 170 -61 230 -67 60 -6
280 12 470 40 55 8 125 17 155 20 30 3 87 15 125 25 39 10 90 21 115 25 25 4
68 13 95 20 28 8 84 19 126 26 97 14 124 4 114 -44 -10 -48 -51 -114 -118
-190 -49 -56 -65 -68 -84 -64 -13 2 -26 0 -29 -4 -3 -5 -13 -5 -24 1 -55 29
-164 11 -216 -37 -21 -20 -23 -25 -12 -43 8 -12 24 -20 39 -20 14 0 48 -7 74
-15 27 -8 52 -12 56 -10 4 3 36 9 71 14 73 10 88 3 88 -44 0 -67 -11 -95 -44
-109 -53 -24 -64 -25 -83 -10 -10 8 -36 23 -58 34 -22 11 -65 34 -95 51 -77
44 -107 51 -140 34 -27 -14 -45 -49 -34 -67 3 -5 22 -16 43 -24 20 -8 44 -27
53 -42 12 -20 34 -32 87 -49 39 -12 81 -33 94 -45 12 -13 27 -23 32 -23 24 -1
64 -29 69 -49 6 -25 -18 -102 -32 -99 -4 1 -25 -2 -45 -7 -27 -6 -41 -4 -51 5
-8 8 -18 10 -27 4 -11 -7 -11 -9 4 -9 9 0 17 -4 17 -10 0 -16 -46 -12 -60 5
-7 8 -18 15 -24 15 -6 0 -33 16 -60 35 -27 19 -54 35 -60 35 -6 0 -28 16 -50
35 -21 20 -49 38 -61 41 -27 7 -95 -23 -95 -41 0 -15 95 -115 109 -115 5 0 18
-11 29 -25 11 -14 25 -25 31 -25 7 0 14 -7 18 -15 5 -16 123 -101 123 -90 0
14 34 -14 37 -31 9 -39 5 -123 -7 -158 -11 -35 -64 -86 -90 -86 -19 0 -52 42
-47 61 3 9 1 23 -4 30 -6 10 -9 11 -9 2 0 -41 -44 18 -104 141 -21 44 -48 90
-60 103 -11 14 -21 31 -21 38 0 19 -35 55 -53 55 -20 0 -62 -39 -62 -57 0 -16
52 -117 63 -121 4 -2 7 -10 7 -18 0 -8 4 -14 9 -14 4 0 14 -21 21 -46 7 -25
18 -51 24 -58 11 -12 19 -23 91 -126 21 -30 43 -58 49 -62 11 -8 16 -65 9
-110 -2 -15 -19 -38 -38 -53 -30 -22 -37 -24 -55 -13 -15 9 -19 19 -15 36 5
20 2 23 -17 20 -16 -2 -36 10 -65 38 -24 23 -43 47 -43 53 0 7 -10 22 -21 34
-12 12 -37 47 -57 77 -19 30 -38 57 -41 60 -4 3 -12 16 -19 30 -14 29 -46 75
-97 142 -19 25 -35 51 -35 56 0 6 -9 14 -20 17 -11 3 -20 11 -20 16 0 18 -48
82 -109 145 -56 57 -170 144 -190 144 -5 0 -14 6 -20 14 -7 8 -35 17 -64 21
-29 4 -72 13 -96 21 -24 8 -69 14 -100 13 -31 -1 -69 1 -85 6 -17 5 -51 3 -85
-5 -91 -21 -287 -21 -362 -1 -117 32 -186 81 -255 182 -62 90 -131 62 -90 -36
14 -33 126 -152 176 -187 l25 -18 -27 4 c-14 3 -36 9 -47 16 -12 6 -26 8 -31
5 -12 -7 -135 90 -205 160 -43 44 -68 74 -128 156 -19 26 -62 32 -87 11 l-21
-17 25 -52 c15 -28 66 -93 115 -145 49 -51 87 -95 85 -97 -2 -3 -14 5 -27 16
-12 11 -40 29 -62 39 -22 10 -81 59 -131 109 -86 87 -93 96 -113 166 -33 110
-36 115 -88 144 -51 29 -143 127 -165 176 -7 16 -16 29 -20 29 -5 0 -8 7 -8
15 0 8 -5 15 -11 15 -9 0 -28 37 -104 205 -7 17 -23 57 -35 90 -12 33 -36 96
-52 140 -16 44 -32 91 -35 105 -2 14 -9 35 -14 48 -5 12 -13 32 -18 45 -5 12
-15 40 -22 62 -6 22 -16 49 -21 59 -16 30 -48 128 -54 161 -7 48 -36 135 -44
135 -4 0 -18 28 -30 63 -12 34 -32 85 -45 112 -13 28 -28 66 -34 86 -7 20 -21
45 -31 54 -11 10 -20 23 -20 30 0 6 -20 38 -45 71 -44 60 -44 62 -40 125 2 35
8 78 13 94 4 17 7 43 6 60 -2 19 4 37 18 52 16 17 19 30 15 57 -9 57 27 136
62 136 9 0 28 7 43 14 39 20 268 33 268 15 0 -7 3 -10 6 -6 8 8 100 -20 163
-51 58 -28 135 -99 179 -164 38 -57 81 -140 81 -158 1 -8 7 -27 15 -41 10 -21
23 -56 31 -89 30 -130 53 -203 73 -232 13 -21 24 -50 24 -65 0 -38 31 -95 68
-127 30 -25 31 -29 25 -75 -6 -46 -4 -52 26 -85 36 -40 38 -41 63 -23 15 11
19 33 23 118 3 57 10 115 16 129 6 14 11 27 11 30 3 19 41 100 47 100 4 0 30
29 58 64 31 39 80 83 123 112 40 27 78 54 85 61 7 6 39 24 70 38 32 15 126 60
208 100 83 41 161 77 175 81 14 4 27 10 30 13 3 4 25 15 50 25 25 10 64 27 87
37 24 11 49 19 56 19 7 0 17 4 23 8 5 4 34 16 64 26 64 21 94 34 214 93 49 23
95 43 101 43 7 0 33 11 56 25 24 14 49 25 56 25 17 0 153 80 153 91 0 5 5 9
11 9 6 0 33 16 59 35 26 19 53 35 59 35 6 0 11 6 11 13 1 6 15 23 31 37 78 64
84 70 72 78 -15 9 13 38 44 44 10 2 17 10 15 17 -2 8 7 24 19 37 12 13 19 24
15 24 -4 0 10 20 31 44 21 24 48 63 60 88 22 44 47 72 69 79 19 7 81 86 116
149 18 33 38 60 45 60 7 0 15 -15 18 -33z m-3449 -3 c8 -10 13 -11 23 -1 10 9
11 8 6 -8 -16 -47 -33 -73 -80 -118 -46 -46 -111 -87 -135 -87 -6 0 -26 -10
-43 -22 -47 -34 -57 -33 -57 5 -1 30 -1 31 -15 13 -18 -23 -20 -14 -4 17 29
55 82 115 98 110 13 -5 14 -3 4 7 -10 11 -7 16 15 27 17 9 28 11 30 4 2 -6 8
-11 14 -11 6 0 8 7 4 15 -9 23 12 18 41 -11 14 -14 28 -22 32 -19 3 4 -7 17
-24 30 -31 26 -31 28 12 56 30 18 61 16 79 -7z m-427 -119 c6 3 11 1 11 -5 0
-6 5 -8 10 -5 6 3 10 2 10 -4 0 -13 -37 -24 -52 -15 -10 6 -11 4 0 -7 20 -22
15 -59 -8 -59 -11 0 -20 5 -20 12 0 6 -3 8 -7 4 -5 -4 -1 -13 8 -19 17 -13 22
-47 6 -47 -5 0 -11 9 -14 20 -3 11 -9 20 -13 20 -11 0 -6 124 5 132 5 4 20 -2
32 -14 12 -11 26 -17 32 -13z m11 25 c0 -5 -5 -10 -11 -10 -5 0 -7 5 -4 10 3
6 8 10 11 10 2 0 4 -4 4 -10z m-552 -135 c18 -16 40 -44 48 -62 9 -17 29 -37
46 -44 17 -7 47 -28 67 -46 20 -18 40 -33 44 -33 25 0 64 -41 65 -67 0 -15 6
-57 12 -93 31 -174 36 -211 29 -221 -4 -6 -11 -9 -17 -5 -7 4 -12 -7 -14 -26
l-3 -33 -77 80 c-74 76 -136 177 -163 265 -4 14 -22 57 -40 95 -36 78 -56 159
-53 220 1 33 3 36 12 20 6 -11 26 -33 44 -50z m672 -23 c0 -5 -11 -14 -25 -20
-28 -13 -35 1 -7 17 21 13 32 14 32 3z m-187 -16 c4 -10 1 -13 -9 -9 -15 6
-19 23 -5 23 5 0 11 -7 14 -14z m7 -36 c0 -5 -2 -10 -4 -10 -3 0 -8 5 -11 10
-3 6 -1 10 4 10 6 0 11 -4 11 -10z m124 -5 c-4 -8 -11 -15 -16 -15 -6 0 -5 6
2 15 7 8 14 15 16 15 2 0 1 -7 -2 -15z m206 -36 c0 -22 -4 -30 -14 -26 -17 7
-72 -28 -57 -37 6 -4 11 -2 11 3 0 6 9 11 19 11 17 0 13 -11 -28 -82 -53 -95
-111 -178 -123 -178 -4 0 -8 -6 -8 -14 0 -8 -4 -18 -10 -21 -6 -3 -7 1 -4 9 3
9 1 16 -4 16 -6 0 -13 -8 -15 -17 -5 -19 -8 5 -8 65 0 19 -4 30 -10 27 -5 -4
-7 -12 -3 -18 3 -7 0 -5 -8 4 -7 9 -23 15 -35 14 -14 -1 -23 4 -23 13 0 8 6
12 15 9 8 -4 17 -2 20 3 3 4 0 10 -6 12 -8 3 -5 10 6 22 12 11 21 14 28 7 29
-29 41 22 14 57 -8 10 -7 16 2 22 8 4 11 14 9 21 -6 18 20 38 50 39 12 0 22 5
22 10 0 6 5 10 10 10 6 0 10 -8 10 -17 0 -12 7 -7 23 15 13 17 27 29 30 25 4
-3 12 -1 19 5 7 5 24 12 38 15 14 2 26 5 28 6 1 0 2 -13 2 -30z m-447 -51 c-4
-19 -1 -28 7 -28 8 0 11 -2 8 -5 -11 -11 -39 8 -33 23 3 8 1 20 -4 26 -7 8 -4
12 9 12 15 0 18 -6 13 -28z m-37 -23 c-1 -22 -2 -23 -13 -9 -12 17 -9 34 7 34
4 0 7 -11 6 -25z m9 -132 c-5 -15 -4 -16 6 -5 20 19 29 14 20 -11 -5 -13 -7
-35 -4 -49 3 -14 0 -34 -7 -45 -6 -11 -9 -12 -7 -3 2 8 -2 35 -9 60 -17 55
-17 70 -3 70 6 0 8 -7 4 -17z m205 -63 c0 -5 -4 -10 -10 -10 -5 0 -10 5 -10
10 0 6 5 10 10 10 6 0 10 -4 10 -10z m-37 -46 c-2 -6 10 -23 26 -37 33 -27 40
-43 16 -34 -8 4 -17 1 -21 -5 -4 -7 -3 -8 4 -4 19 12 14 -6 -10 -31 -29 -31
-45 -29 -24 2 16 24 16 25 -8 23 -14 -1 -22 -7 -18 -12 15 -24 10 -54 -10 -59
-18 -5 -19 -2 -13 36 9 50 7 48 34 50 11 1 21 5 21 10 0 4 -6 7 -12 6 -7 -1
-22 -1 -33 0 -18 1 -18 3 -4 14 9 7 14 18 11 26 -3 8 0 11 7 7 11 -7 15 5 12
33 -2 11 0 11 12 0 8 -8 13 -19 10 -25z m169 -111 c31 -35 100 -93 111 -93 11
0 -2 -41 -19 -61 -16 -18 -70 -18 -115 0 -15 5 -29 7 -32 4 -3 -3 -12 -1 -19
3 -7 5 -16 9 -20 10 -5 1 -10 3 -13 4 -3 1 -8 3 -12 4 -5 1 -17 7 -28 13 -19
12 -16 16 45 77 36 36 68 65 71 66 3 0 17 -12 31 -27z m-534 -149 c42 -31 86
-57 104 -59 42 -5 47 -12 59 -81 6 -32 15 -74 21 -92 5 -19 11 -44 13 -55 1
-12 8 -42 15 -67 26 -100 26 -99 -21 -51 -24 24 -56 52 -71 61 -15 9 -38 31
-50 48 -13 17 -44 59 -69 94 -26 35 -54 86 -64 113 -20 60 -31 145 -19 145 5
0 42 -25 82 -56z m313 -54 c10 0 27 -8 37 -17 10 -10 27 -19 37 -20 43 -4 90
-13 124 -24 20 -6 54 -13 76 -16 22 -2 41 -6 43 -7 7 -8 12 -165 5 -188 l-8
-27 -80 60 c-44 33 -92 73 -107 90 -15 16 -33 29 -41 29 -8 0 -36 26 -63 58
-27 31 -54 61 -61 65 -7 4 -13 13 -13 18 0 6 7 3 16 -5 8 -9 24 -16 35 -16z
m79 -10 c0 -5 -2 -10 -4 -10 -3 0 -8 5 -11 10 -3 6 -1 10 4 10 6 0 11 -4 11
-10z m-146 -104 c-6 -17 -4 -19 7 -9 11 9 14 6 15 -15 0 -15 4 -35 8 -45 6
-13 5 -16 -8 -11 -9 3 -21 25 -26 48 -6 22 -14 50 -17 61 -5 18 -4 18 11 6 11
-9 14 -21 10 -35z m59 -153 c8 -23 10 -40 5 -37 -5 3 1 -11 11 -30 11 -20 18
-43 15 -51 -4 -8 -1 -15 5 -15 6 0 18 -17 27 -37 12 -30 13 -42 4 -57 -10 -16
-9 -18 4 -13 19 8 20 3 5 -26 -7 -12 -8 -19 -4 -15 5 5 14 -1 22 -12 8 -11 20
-20 28 -20 8 0 12 -6 9 -13 -2 -7 5 -22 16 -34 11 -12 20 -27 20 -33 0 -5 5
-10 11 -10 8 0 8 -5 -1 -15 -9 -11 -10 -15 -1 -15 17 0 34 -19 54 -59 14 -27
15 -36 5 -43 -7 -4 -17 -6 -23 -5 -16 5 -76 110 -71 124 3 7 0 12 -6 10 -6 -1
-20 16 -32 38 -11 22 -28 51 -37 65 -9 14 -25 52 -34 85 -10 33 -25 67 -32 77
-8 9 -13 29 -11 45 2 15 -3 33 -10 38 -7 6 -14 27 -15 47 -1 20 -6 40 -10 44
-4 4 -7 13 -7 21 0 28 39 -11 53 -54z m125 0 c7 -7 16 -13 20 -13 4 0 23 -15
42 -33 20 -17 43 -36 51 -42 88 -56 94 -64 92 -122 -1 -7 5 -13 12 -13 17 0
80 -77 90 -110 4 -14 20 -53 36 -88 16 -35 29 -69 29 -75 0 -7 16 -43 35 -81
19 -39 35 -76 35 -83 0 -7 7 -34 15 -60 32 -99 67 -209 72 -223 4 -8 8 -23 10
-33 1 -10 12 -37 23 -59 11 -23 17 -44 14 -47 -3 -3 -8 -1 -12 5 -4 6 -17 14
-29 18 -13 4 -40 22 -61 39 -22 18 -65 50 -96 72 -137 97 -225 167 -276 222
-30 32 -71 77 -92 98 -20 22 -59 58 -86 80 -47 38 -122 138 -122 164 0 6 -7
23 -16 36 -9 13 -14 32 -12 41 3 15 5 16 18 3 22 -20 57 -39 73 -39 8 0 28
-26 46 -57 60 -109 68 -122 74 -117 3 3 17 -14 31 -39 21 -36 59 -67 81 -67 3
0 17 18 31 40 15 22 33 40 40 40 24 0 26 39 4 70 -12 17 -18 30 -15 30 4 0 -7
18 -24 39 -17 21 -31 44 -31 50 0 6 -4 11 -10 11 -5 0 -13 12 -16 28 -4 15
-19 53 -35 85 -16 32 -29 66 -29 77 0 10 -5 22 -10 25 -6 4 -9 12 -8 18 1 7
-3 22 -10 35 -7 12 -10 27 -7 32 3 5 1 11 -4 14 -5 3 -12 18 -16 33 -3 16 -14
37 -23 48 -14 17 14 -5 66 -52z"/>
<path d="M714 4608 c0 -10 3 -18 7 -18 4 0 9 8 11 18 3 10 0 19 -6 19 -7 0
-12 -9 -12 -19z"/>
<path d="M1120 4900 c-8 -5 -11 -12 -7 -16 4 -4 15 0 24 9 18 18 8 23 -17 7z"/>
<path d="M1055 4840 c3 -5 8 -10 11 -10 2 0 4 5 4 10 0 6 -5 10 -11 10 -5 0
-7 -4 -4 -10z"/>
<path d="M496 4293 c-11 -11 -6 -23 9 -23 8 0 15 4 15 9 0 13 -16 22 -24 14z"/>
<path d="M1288 3608 c-29 -10 -64 -78 -60 -117 5 -42 33 -87 66 -105 29 -15
34 -15 63 -1 18 9 45 33 61 53 l29 37 -17 54 c-10 29 -25 60 -33 69 -18 17
-72 22 -109 10z m57 -79 c0 -8 -10 -15 -22 -17 -25 -4 -30 7 -11 26 15 15 33
10 33 -9z"/>
<path d="M3027 2420 c-3 -11 -1 -20 4 -20 5 0 9 2 9 4 0 2 3 11 6 20 3 9 2 16
-4 16 -5 0 -12 -9 -15 -20z"/>
<path d="M2560 2255 c0 -9 5 -15 11 -13 6 2 11 8 11 13 0 5 -5 11 -11 13 -6 2
-11 -4 -11 -13z"/>
<path d="M2680 2171 c0 -5 7 -12 16 -15 14 -5 15 -4 4 9 -14 17 -20 19 -20 6z"/>
<path d="M2695 2130 c3 -5 8 -10 11 -10 2 0 4 5 4 10 0 6 -5 10 -11 10 -5 0
-7 -4 -4 -10z"/>
<path d="M2740 2119 c0 -5 5 -7 10 -4 6 3 10 8 10 11 0 2 -4 4 -10 4 -5 0 -10
-5 -10 -11z"/>
<path d="M4310 1220 c0 -5 5 -10 10 -10 6 0 10 5 10 10 0 6 -4 10 -10 10 -5 0
-10 -4 -10 -10z"/>
<path d="M3225 1130 c3 -5 11 -10 16 -10 6 0 7 5 4 10 -3 6 -11 10 -16 10 -6
0 -7 -4 -4 -10z"/>
<path d="M4405 960 c-3 -5 -2 -10 4 -10 5 0 13 5 16 10 3 6 2 10 -4 10 -5 0
-13 -4 -16 -10z"/>
<path d="M4495 880 c3 -5 8 -10 11 -10 2 0 4 5 4 10 0 6 -5 10 -11 10 -5 0 -7
-4 -4 -10z"/>
<path d="M1020 4580 c0 -5 5 -10 11 -10 5 0 7 5 4 10 -3 6 -8 10 -11 10 -2 0
-4 -4 -4 -10z"/>
<path d="M1069 4503 c-13 -16 -12 -17 4 -4 9 7 17 15 17 17 0 8 -8 3 -21 -13z"/>
<path d="M890 4480 c0 -5 5 -10 10 -10 6 0 10 5 10 10 0 6 -4 10 -10 10 -5 0
-10 -4 -10 -10z"/>
<path d="M975 4430 c-3 -6 1 -7 9 -4 18 7 21 14 7 14 -6 0 -13 -4 -16 -10z"/>
<path d="M858 4423 c7 -3 16 -2 19 1 4 3 -2 6 -13 5 -11 0 -14 -3 -6 -6z"/>
<path d="M635 4440 c-3 -5 -1 -10 4 -10 6 0 11 5 11 10 0 6 -2 10 -4 10 -3 0
-8 -4 -11 -10z"/>
<path d="M901 4154 c0 -11 3 -14 6 -6 3 7 2 16 -1 19 -3 4 -6 -2 -5 -13z"/>
<path d="M796 3988 l-17 -33 20 24 c18 20 27 41 18 41 -1 0 -11 -15 -21 -32z"/>
<path d="M635 3600 c3 -5 8 -10 11 -10 2 0 4 5 4 10 0 6 -5 10 -11 10 -5 0 -7
-4 -4 -10z"/>
<path d="M760 3550 c-9 -6 -10 -10 -3 -10 6 0 15 5 18 10 8 12 4 12 -15 0z"/>
</g>
</svg>
